<svg xmlns="http://www.w3.org/2000/svg" width="24" height="24" viewBox="0 0 24 24">
  <path d="M13,18 L13,20 L11,20 L11,18 L13,18 Z M12,4 C14.9160666,4 17,5.73661118 17,9 C17,10.641639 16.2506357,11.734462 14.6585046,13.1275767 C14.547232,13.2249402 14.1791855,13.5424768 14.1600735,13.5590634 C13.9760837,13.7187402 13.8420719,13.8382341 13.7209782,13.9517594 C13.1988697,14.4412361 13,14.7544559 13,15 L13,15 L13,16 L11,16 L11,15 C11,14.0566552 11.4634396,13.3267378 12.3530959,12.492685 C12.496312,12.35842 12.6475274,12.2235862 12.8491858,12.0485755 C12.8729659,12.0279378 13.2364981,11.7142959 13.3414954,11.6224233 C14.5350786,10.578038 15,9.90002763 15,9 C15,6.93005548 13.8839334,6 12,6 C10.1160666,6 9,6.93005548 9,9 L9,9 L9,10 L7,10 L7,9 C7,5.73661118 9.08393342,4 12,4 Z"/>
</svg>
